<!-- icon666.com - MILLIONS OF FREE VECTOR ICONS --><svg viewBox="0 -57 461.58598 461" xmlns="http://www.w3.org/2000/svg"><path d="m95.921875 299.605469c5.03125-.003907 10.050781-.402344 15.015625-1.191407-2.636719-3.742187-5.128906-7.613281-7.433594-11.628906-11.386718-19.605468-17.734375-41.726562-18.476562-64.386718-.652344-23.878907 5.464844-47.453126 17.640625-68 .113281-.195313.234375-.382813.367187-.5625l34.589844-48.066407-41.710938-58.113281-84.5625 117.5c-15.414062 26.667969-15.121093 57.847656.824219 85.597656 17.195313 30.066406 49.113281 48.683594 83.746094 48.851563zm0 0" fill="#000000" style="fill: rgb(255, 0, 0);"></path><path d="m99.023438 222.03125c.679687 20.339844 6.386718 40.191406 16.621093 57.78125 3.511719 6.109375 7.503907 11.929688 11.929688 17.414062.921875.675782 1.660156 1.566407 2.15625 2.597657 25.152343 29.761719 62.09375 46.996093 101.0625 47.148437 47.3125 0 91.484375-25.792968 115.273437-67.3125 10.171875-17.523437 15.839844-37.296875 16.5-57.546875.550782-21.035156-4.847656-41.800781-15.574218-59.910156l-36.222657-50.472656c-1.15625-.859375-2.019531-2.058594-2.464843-3.429688l-77.519532-108.007812-78.945312 109.695312-.007813.011719-37.238281 51.738281c-10.746094 18.238281-16.140625 39.132813-15.570312 60.292969zm131.769531 5.324219c-20.742188 0-38.046875-15.847657-39.871094-36.511719-1.820313-20.660156 12.449219-39.292969 32.871094-42.917969v-11.792969c0-3.867187 3.132812-7 7-7 3.867187 0 7 3.132813 7 7v11.789063c19.089843 3.414063 33 20.003906 33.027343 39.398437 0 3.867188-3.132812 7-7 7-3.863281 0-7-3.132812-7-7 0-14.375-11.65625-26.023437-26.03125-26.019531-14.375 0-26.027343 11.65625-26.023437 26.03125 0 14.371094 11.652344 26.023438 26.027344 26.023438 20.742187 0 38.050781 15.851562 39.871093 36.511719 1.820313 20.664062-12.449218 39.292968-32.871093 42.921874v13.34375c0 3.863282-3.132813 7-7 7-3.867188 0-7-3.136718-7-7v-13.34375c-19.089844-3.414062-33-20.003906-33.027344-39.398437 0-3.867187 3.132813-7 7-7 3.863281 0 7 3.132813 7 7 0 14.375 11.65625 26.027344 26.03125 26.023437 14.375 0 26.027344-11.65625 26.023437-26.03125 0-14.375-11.652343-26.027343-26.027343-26.027343zm0 0" fill="#000000" style="fill: rgb(255, 0, 0);"></path><path d="m358.910156 154.851562c12.160156 20.414063 18.28125 43.863282 17.652344 67.617188-.71875 22.570312-7.023438 44.613281-18.347656 64.152344-2.332032 4.074218-4.84375 8.007812-7.535156 11.800781 4.957031.785156 9.964843 1.183594 14.984374 1.183594 34.6875-.164063 66.652344-18.828125 83.839844-48.960938 15.851563-27.664062 16.117188-58.675781.734375-85.140625l-84.582031-117.847656-41.878906 58.191406 34.78125 48.460938c.125.175781.242187.355468.351562.542968zm0 0" fill="#000000" style="fill: rgb(255, 0, 0);"></path></svg>