<svg width="424" height="425" version="1.1" xmlns="http://www.w3.org/2000/svg"><path fill="rgb(0,0,0)" stroke="rgb(0,0,0)" stroke-width="1" opacity="1" d="M 203.5 48 L 224.5 48 L 249.5 53 L 268.5 61 L 293.5 77 L 311.5 86 L 326.5 90 L 347.5 91 L 348.5 90 L 357 90 L 360 114.5 L 368 141.5 Q 381.8 171.7 405.5 192 L 416 200.5 L 418 211.5 L 418 252.5 L 417 253.5 L 417 262.5 L 416 263.5 L 414 280.5 L 405 308.5 Q 391.8 337.3 369.5 357 Q 350 374.8 324 385 L 325 381.5 L 331 374.5 L 344 353.5 L 355 330.5 L 362 306.5 L 364 284.5 L 363 283.5 L 362 267.5 L 358 254.5 Q 352.9 241.1 342.5 233 L 329.5 227 L 320.5 226 L 319.5 227 L 308.5 228 Q 298.8 231.3 293 238.5 L 287 251.5 Q 285.2 268.2 280 281.5 L 270.5 294 Q 267 299 261 300 Q 260.2 290.5 253.5 286 L 243.5 287 L 226.5 293 L 201.5 294 L 191.5 292 L 179.5 287 L 171.5 286 L 168 288.5 Q 164 292.8 164 300 L 159.5 299 L 151 291.5 L 142 275.5 L 136 247.5 Q 132.9 239.1 126.5 234 Q 117 225.5 97.5 227 Q 81.4 229.9 74 241.5 L 68 251.5 L 62 270.5 L 61 296.5 L 65 317.5 L 75 343.5 Q 85.9 366.1 101 384.5 L 97.5 385 L 69.5 369 L 44 346.5 Q 25.2 326.3 15 297.5 L 9 273.5 L 8 259.5 L 7 258.5 L 6 219.5 L 7 218.5 L 8 201.5 L 11.5 198 L 30 181.5 Q 47.1 164.6 57 140.5 L 63 121.5 L 66 106.5 L 67 91 L 71.5 90 L 72.5 91 L 92.5 91 L 93.5 90 L 104.5 89 L 116.5 85 L 158.5 60 L 167.5 56 L 179.5 52 L 194.5 49 L 202.5 49 L 203.5 48 Z M 213 68 L 212 69 L 204 69 L 195 72 L 183 80 L 173 92 L 168 106 Q 166 130 177 142 L 190 153 L 208 159 L 225 158 L 241 150 Q 254 140 258 121 Q 259 110 257 103 Q 254 90 246 83 L 232 72 L 223 69 L 214 69 L 213 68 Z M 144 178 L 142 180 Q 142 194 148 203 Q 151 208 159 210 Q 172 212 177 205 Q 177 200 174 198 Q 171 199 172 196 L 170 196 L 170 195 L 167 192 L 164 188 L 152 180 L 144 178 Z M 280 179 Q 269 181 264 188 L 261 190 L 256 196 L 252 199 Q 253 201 251 200 L 248 206 L 257 211 Q 266 212 272 209 Q 277 205 280 198 L 283 181 L 280 179 Z "></path><path fill="rgb(127,0,0)" stroke="rgb(127,0,0)" stroke-width="1" opacity="1" d="M 203.5 69 L 208 69.5 L 197.5 72 L 197.5 71 L 203.5 69 Z "></path><path fill="rgb(127,0,0)" stroke="rgb(127,0,0)" stroke-width="1" opacity="1" d="M 218.5 69 L 223 69.5 L 218.5 70 L 218.5 69 Z "></path><path fill="rgb(127,0,0)" stroke="rgb(127,0,0)" stroke-width="1" opacity="1" d="M 224.5 70 L 229 71.5 L 227.5 72 L 224.5 71 L 224.5 70 Z "></path><path fill="rgb(127,0,0)" stroke="rgb(127,0,0)" stroke-width="1" opacity="1" d="M 194.5 72 L 196 72.5 L 184.5 80 L 187.5 76 L 194.5 72 Z "></path><path fill="rgb(127,0,0)" stroke="rgb(127,0,0)" stroke-width="1" opacity="1" d="M 230.5 72 Q 240 75.5 246 82.5 L 244 83 Q 245.1 80.3 242.5 81 L 230.5 73 L 230.5 72 Z "></path><path fill="rgb(127,0,0)" stroke="rgb(127,0,0)" stroke-width="1" opacity="1" d="M 182.5 80 L 180 83.5 L 176.5 88 L 178 85.5 L 182.5 80 Z "></path><path fill="rgb(127,0,0)" stroke="rgb(127,0,0)" stroke-width="1" opacity="1" d="M 246.5 84 L 249.5 88 L 246.5 84 Z "></path><path fill="rgb(127,0,0)" stroke="rgb(127,0,0)" stroke-width="1" opacity="1" d="M 175.5 89 L 175 90.5 L 170.5 101 L 170 98.5 L 175.5 89 Z "></path><path fill="rgb(127,0,0)" stroke="rgb(127,0,0)" stroke-width="1" opacity="1" d="M 250.5 89 L 255 97.5 L 254 97.5 L 250.5 89 Z "></path><path fill="rgb(127,0,0)" stroke="rgb(127,0,0)" stroke-width="1" opacity="1" d="M 256.5 102 Q 259.8 108.8 258 120.5 L 257 120.5 L 257 106.5 L 256.5 102 Z "></path><path fill="rgb(127,0,0)" stroke="rgb(127,0,0)" stroke-width="1" opacity="1" d="M 168.5 105 Q 167.2 135.8 184.5 148 L 193 153.5 L 191.5 154 L 177 141.5 Q 170.4 133.6 168 121.5 L 168.5 105 Z "></path><path fill="rgb(127,0,0)" stroke="rgb(127,0,0)" stroke-width="1" opacity="1" d="M 256.5 122 L 257 124.5 L 256 124.5 L 256.5 122 Z "></path><path fill="rgb(127,0,0)" stroke="rgb(127,0,0)" stroke-width="1" opacity="1" d="M 255.5 126 L 256 128.5 L 254.5 131 L 254 129.5 L 255.5 126 Z "></path><path fill="rgb(127,0,0)" stroke="rgb(127,0,0)" stroke-width="1" opacity="1" d="M 253.5 132 L 254 133.5 L 252 134.5 L 253.5 132 Z "></path><path fill="rgb(127,0,0)" stroke="rgb(127,0,0)" stroke-width="1" opacity="1" d="M 251.5 136 L 251 137.5 Q 247.7 145.7 240.5 150 L 235.5 153 L 236.5 151 L 247 142.5 L 251.5 136 Z "></path><path fill="rgb(127,0,0)" stroke="rgb(127,0,0)" stroke-width="1" opacity="1" d="M 230.5 154 L 232 154.5 L 224.5 158 L 207.5 159 L 207.5 158 L 218.5 158 L 230.5 154 Z "></path><path fill="rgb(127,0,0)" stroke="rgb(127,0,0)" stroke-width="1" opacity="1" d="M 199.5 156 L 206 157.5 L 202.5 158 L 199.5 157 L 199.5 156 Z "></path><path fill="rgb(127,0,0)" stroke="rgb(127,0,0)" stroke-width="1" opacity="1" d="M 143.5 178 L 151.5 180 L 164 188 L 166.5 192 L 170 194.5 L 170 196 L 172 196 Q 170.9 198.7 173.5 198 Q 176.8 199.8 177 204.5 Q 172.2 211.7 158.5 210 L 158.5 209 L 167.5 209 L 176 205 L 175 200 L 173.5 200 L 156.5 184 L 143 179 L 142.5 185 L 142 179.5 L 143.5 178 Z "></path><path fill="rgb(127,0,0)" stroke="rgb(127,0,0)" stroke-width="1" opacity="1" d="M 279.5 179 L 283 180.5 L 282.5 184 L 282 180 L 276.5 181 L 265.5 187 L 249 203.5 L 250.5 207 L 256.5 210 L 267 210.5 L 256.5 211 L 248 205.5 L 250.5 200 Q 252.8 200.8 252 198.5 L 256 196 L 260.5 190 L 263.5 188 Q 269.4 181.4 279.5 179 Z "></path><path fill="rgb(127,0,0)" stroke="rgb(127,0,0)" stroke-width="1" opacity="1" d="M 281.5 185 L 282 190.5 L 279.5 198 L 279 195.5 L 281.5 185 Z "></path><path fill="rgb(127,0,0)" stroke="rgb(127,0,0)" stroke-width="1" opacity="1" d="M 143.5 186 L 144 189.5 L 143 189.5 L 143.5 186 Z "></path><path fill="rgb(127,0,0)" stroke="rgb(127,0,0)" stroke-width="1" opacity="1" d="M 144.5 191 L 145 193.5 L 144 193.5 L 144.5 191 Z "></path><path fill="rgb(127,0,0)" stroke="rgb(127,0,0)" stroke-width="1" opacity="1" d="M 146.5 198 L 148 200.5 L 146 199.5 L 146.5 198 Z "></path><path fill="rgb(127,0,0)" stroke="rgb(127,0,0)" stroke-width="1" opacity="1" d="M 277.5 201 L 277 202.5 L 271.5 209 L 268.5 210 L 268.5 209 L 276 203.5 L 277.5 201 Z "></path><path fill="rgb(127,0,0)" stroke="rgb(127,0,0)" stroke-width="1" opacity="1" d="M 148.5 202 L 157 208.5 L 155.5 209 L 148.5 202 Z "></path><path fill="rgb(127,127,0)" stroke="rgb(127,127,0)" stroke-width="1" opacity="1" d="M 208.5 69 L 218 69.5 L 208.5 70 L 208.5 69 Z "></path><path fill="rgb(127,127,0)" stroke="rgb(127,127,0)" stroke-width="1" opacity="1" d="M 187.5 77 L 186.5 79 L 187.5 77 Z "></path><path fill="rgb(127,127,0)" stroke="rgb(127,127,0)" stroke-width="1" opacity="1" d="M 239.5 78 L 240.5 80 L 239.5 78 Z "></path><path fill="rgb(127,127,0)" stroke="rgb(127,127,0)" stroke-width="1" opacity="1" d="M 183.5 80 L 180.5 84 L 183.5 80 Z "></path><path fill="rgb(127,127,0)" stroke="rgb(127,127,0)" stroke-width="1" opacity="1" d="M 178.5 86 L 176.5 89 L 178.5 86 Z "></path><path fill="rgb(127,127,0)" stroke="rgb(127,127,0)" stroke-width="1" opacity="1" d="M 247.5 86 L 249.5 89 L 247.5 86 Z "></path><path fill="rgb(127,127,0)" stroke="rgb(127,127,0)" stroke-width="1" opacity="1" d="M 169.5 104 L 170 106.5 L 169 106.5 L 169.5 104 Z "></path><path fill="rgb(127,127,0)" stroke="rgb(127,127,0)" stroke-width="1" opacity="1" d="M 256.5 119 L 257 121.5 L 256 121.5 L 256.5 119 Z "></path><path fill="rgb(127,127,0)" stroke="rgb(127,127,0)" stroke-width="1" opacity="1" d="M 251.5 135 L 250.5 137 L 251.5 135 Z "></path><path fill="rgb(127,127,0)" stroke="rgb(127,127,0)" stroke-width="1" opacity="1" d="M 249.5 138 L 248.5 140 L 249.5 138 Z "></path><path fill="rgb(127,127,0)" stroke="rgb(127,127,0)" stroke-width="1" opacity="1" d="M 178.5 141 L 179.5 143 L 178.5 141 Z "></path><path fill="rgb(127,127,0)" stroke="rgb(127,127,0)" stroke-width="1" opacity="1" d="M 246.5 142 L 241.5 148 L 246.5 142 Z "></path><path fill="rgb(127,127,0)" stroke="rgb(127,127,0)" stroke-width="1" opacity="1" d="M 181.5 144 L 184.5 148 L 181.5 144 Z "></path><path fill="rgb(127,127,0)" stroke="rgb(127,127,0)" stroke-width="1" opacity="1" d="M 187.5 149 L 188.5 151 L 187.5 149 Z "></path><path fill="rgb(127,127,0)" stroke="rgb(127,127,0)" stroke-width="1" opacity="1" d="M 238.5 149 L 237.5 151 L 238.5 149 Z "></path><path fill="rgb(127,127,0)" stroke="rgb(127,127,0)" stroke-width="1" opacity="1" d="M 206.5 157 L 209 157.5 L 206.5 158 L 206.5 157 Z "></path><path fill="rgb(127,127,0)" stroke="rgb(127,127,0)" stroke-width="1" opacity="1" d="M 279.5 180 Q 284.1 178.7 282 184.5 L 281 184.5 Q 282.5 180.1 279.5 181 L 279.5 180 Z "></path><path fill="rgb(127,127,0)" stroke="rgb(127,127,0)" stroke-width="1" opacity="1" d="M 143.5 181 L 144 185.5 L 143 185.5 L 143.5 181 Z "></path><path fill="rgb(127,127,0)" stroke="rgb(127,127,0)" stroke-width="1" opacity="1" d="M 156.5 184 L 157.5 186 L 156.5 184 Z "></path><path fill="rgb(127,127,0)" stroke="rgb(127,127,0)" stroke-width="1" opacity="1" d="M 268.5 185 L 267.5 187 L 268.5 185 Z "></path><path fill="rgb(127,127,0)" stroke="rgb(127,127,0)" stroke-width="1" opacity="1" d="M 159.5 186 L 164.5 192 L 159.5 186 Z "></path><path fill="rgb(127,127,0)" stroke="rgb(127,127,0)" stroke-width="1" opacity="1" d="M 265.5 187 L 262.5 191 L 265.5 187 Z "></path><path fill="rgb(127,127,0)" stroke="rgb(127,127,0)" stroke-width="1" opacity="1" d="M 166.5 193 L 172.5 200 L 166.5 193 Z "></path><path fill="rgb(127,127,0)" stroke="rgb(127,127,0)" stroke-width="1" opacity="1" d="M 259.5 193 L 257.5 196 L 259.5 193 Z "></path><path fill="rgb(127,127,0)" stroke="rgb(127,127,0)" stroke-width="1" opacity="1" d="M 255.5 197 L 254.5 199 L 255.5 197 Z "></path><path fill="rgb(127,127,0)" stroke="rgb(127,127,0)" stroke-width="1" opacity="1" d="M 278.5 197 L 279 198.5 L 276.5 202 L 277 200.5 L 278.5 197 Z "></path><path fill="rgb(127,127,0)" stroke="rgb(127,127,0)" stroke-width="1" opacity="1" d="M 148.5 201 L 153.5 207 L 148.5 201 Z "></path><path fill="rgb(127,127,0)" stroke="rgb(127,127,0)" stroke-width="1" opacity="1" d="M 250.5 202 L 250 203.5 L 251 206.5 L 249 205.5 L 250.5 202 Z "></path><path fill="rgb(127,127,0)" stroke="rgb(127,127,0)" stroke-width="1" opacity="1" d="M 275.5 203 L 271.5 208 L 275.5 203 Z "></path><path fill="rgb(127,127,0)" stroke="rgb(127,127,0)" stroke-width="1" opacity="1" d="M 173.5 205 L 172.5 207 L 173.5 205 Z "></path><path fill="rgb(127,127,0)" stroke="rgb(127,127,0)" stroke-width="1" opacity="1" d="M 157.5 208 L 160 208.5 L 157.5 209 L 157.5 208 Z "></path><path fill="rgb(127,127,127)" stroke="rgb(127,127,127)" stroke-width="1" opacity="1" d="M 206.5 47 L 224 47.5 L 206.5 48 L 206.5 47 Z "></path><path fill="rgb(127,127,127)" stroke="rgb(127,127,127)" stroke-width="1" opacity="1" d="M 196.5 48 L 203 48.5 L 196.5 49 L 196.5 48 Z "></path><path fill="rgb(127,127,127)" stroke="rgb(127,127,127)" stroke-width="1" opacity="1" d="M 225.5 48 L 232 48.5 L 225.5 49 L 225.5 48 Z "></path><path fill="rgb(127,127,127)" stroke="rgb(127,127,127)" stroke-width="1" opacity="1" d="M 190.5 49 L 194 49.5 L 190.5 50 L 190.5 49 Z "></path><path fill="rgb(127,127,127)" stroke="rgb(127,127,127)" stroke-width="1" opacity="1" d="M 233.5 49 L 237 49.5 L 233.5 50 L 233.5 49 Z "></path><path fill="rgb(127,127,127)" stroke="rgb(127,127,127)" stroke-width="1" opacity="1" d="M 184.5 50 L 188 50.5 L 180.5 52 L 180.5 51 L 184.5 50 Z "></path><path fill="rgb(127,127,127)" stroke="rgb(127,127,127)" stroke-width="1" opacity="1" d="M 238.5 50 L 242 50.5 L 238.5 51 L 238.5 50 Z "></path><path fill="rgb(127,127,127)" stroke="rgb(127,127,127)" stroke-width="1" opacity="1" d="M 243.5 51 Q 253.5 52 260 56.5 L 258.5 57 L 255.5 55 L 243.5 52 L 243.5 51 Z "></path><path fill="rgb(127,127,127)" stroke="rgb(127,127,127)" stroke-width="1" opacity="1" d="M 176.5 52 L 179 52.5 L 168.5 56 L 168.5 55 L 176.5 52 Z "></path><path fill="rgb(127,127,127)" stroke="rgb(127,127,127)" stroke-width="1" opacity="1" d="M 165.5 56 L 167 56.5 L 163.5 58 L 163.5 57 L 165.5 56 Z "></path><path fill="rgb(127,127,127)" stroke="rgb(127,127,127)" stroke-width="1" opacity="1" d="M 261.5 57 L 268 60.5 L 266.5 60 L 261.5 58 L 261.5 57 Z "></path><path fill="rgb(127,127,127)" stroke="rgb(127,127,127)" stroke-width="1" opacity="1" d="M 157.5 60 L 156.5 62 L 142.5 70 L 143.5 68 L 157.5 60 Z "></path><path fill="rgb(127,127,127)" stroke="rgb(127,127,127)" stroke-width="1" opacity="1" d="M 269.5 61 L 298 78.5 L 296.5 78 L 270.5 63 L 269.5 61 Z "></path><path fill="rgb(127,127,127)" stroke="rgb(127,127,127)" stroke-width="1" opacity="1" d="M 140.5 70 L 139.5 72 L 134.5 75 L 135.5 73 L 140.5 70 Z "></path><path fill="rgb(127,127,127)" stroke="rgb(127,127,127)" stroke-width="1" opacity="1" d="M 132.5 75 L 131.5 77 L 129.5 78 L 130.5 76 L 132.5 75 Z "></path><path fill="rgb(127,127,127)" stroke="rgb(127,127,127)" stroke-width="1" opacity="1" d="M 127.5 78 L 126.5 80 L 115.5 85 L 115.5 84 L 127.5 78 Z "></path><path fill="rgb(127,127,127)" stroke="rgb(127,127,127)" stroke-width="1" opacity="1" d="M 299.5 79 L 308 83.5 L 306.5 84 L 300.5 81 L 299.5 79 Z "></path><path fill="rgb(127,127,127)" stroke="rgb(127,127,127)" stroke-width="1" opacity="1" d="M 309.5 84 L 316 86.5 L 314.5 87 L 309.5 85 L 309.5 84 Z "></path><path fill="rgb(127,127,127)" stroke="rgb(127,127,127)" stroke-width="1" opacity="1" d="M 112.5 85 L 114 85.5 L 106.5 88 L 106.5 87 L 112.5 85 Z "></path><path fill="rgb(127,127,127)" stroke="rgb(127,127,127)" stroke-width="1" opacity="1" d="M 317.5 87 L 320 87.5 L 317.5 88 L 317.5 87 Z "></path><path fill="rgb(127,127,127)" stroke="rgb(127,127,127)" stroke-width="1" opacity="1" d="M 101.5 88 L 105 88.5 L 101.5 89 L 101.5 88 Z "></path><path fill="rgb(127,127,127)" stroke="rgb(127,127,127)" stroke-width="1" opacity="1" d="M 321.5 88 L 325 88.5 L 321.5 89 L 321.5 88 Z "></path><path fill="rgb(127,127,127)" stroke="rgb(127,127,127)" stroke-width="1" opacity="1" d="M 95.5 89 L 100 89.5 L 95.5 90 L 95.5 89 Z "></path><path fill="rgb(127,127,127)" stroke="rgb(127,127,127)" stroke-width="1" opacity="1" d="M 326.5 89 L 334 89.5 L 326.5 90 L 326.5 89 Z "></path><path fill="rgb(127,127,127)" stroke="rgb(127,127,127)" stroke-width="1" opacity="1" d="M 350.5 89 Q 356.5 87.5 358 90.5 L 357.5 94 L 357 90 L 350.5 90 L 350.5 89 Z "></path><path fill="rgb(127,127,127)" stroke="rgb(127,127,127)" stroke-width="1" opacity="1" d="M 72.5 90 L 93 90.5 L 72.5 91 L 72.5 90 Z "></path><path fill="rgb(127,127,127)" stroke="rgb(127,127,127)" stroke-width="1" opacity="1" d="M 336.5 90 L 348 90.5 L 336.5 91 L 336.5 90 Z "></path><path fill="rgb(127,127,127)" stroke="rgb(127,127,127)" stroke-width="1" opacity="1" d="M 66.5 92 L 67 98.5 L 66 98.5 L 66.5 92 Z "></path><path fill="rgb(127,127,127)" stroke="rgb(127,127,127)" stroke-width="1" opacity="1" d="M 358.5 96 L 359 102.5 L 358 102.5 L 358.5 96 Z "></path><path fill="rgb(127,127,127)" stroke="rgb(127,127,127)" stroke-width="1" opacity="1" d="M 65.5 101 L 66 106.5 L 65 106.5 L 65.5 101 Z "></path><path fill="rgb(127,127,127)" stroke="rgb(127,127,127)" stroke-width="1" opacity="1" d="M 359.5 104 L 361 114.5 L 360 114.5 L 359.5 104 Z "></path><path fill="rgb(127,127,127)" stroke="rgb(127,127,127)" stroke-width="1" opacity="1" d="M 64.5 108 L 65 111.5 L 64 111.5 L 64.5 108 Z "></path><path fill="rgb(127,127,127)" stroke="rgb(127,127,127)" stroke-width="1" opacity="1" d="M 63.5 114 L 64 116.5 L 63 116.5 L 63.5 114 Z "></path><path fill="rgb(127,127,127)" stroke="rgb(127,127,127)" stroke-width="1" opacity="1" d="M 361.5 116 L 362 118.5 L 361 118.5 L 361.5 116 Z "></path><path fill="rgb(127,127,127)" stroke="rgb(127,127,127)" stroke-width="1" opacity="1" d="M 62.5 118 L 63 121.5 L 62 121.5 L 62.5 118 Z "></path><path fill="rgb(127,127,127)" stroke="rgb(127,127,127)" stroke-width="1" opacity="1" d="M 362.5 120 L 363 122.5 L 362 122.5 L 362.5 120 Z "></path><path fill="rgb(127,127,127)" stroke="rgb(127,127,127)" stroke-width="1" opacity="1" d="M 61.5 123 L 62 125.5 L 60.5 129 L 60 126.5 L 61.5 123 Z "></path><path fill="rgb(127,127,127)" stroke="rgb(127,127,127)" stroke-width="1" opacity="1" d="M 363.5 124 L 364 126.5 L 363 126.5 L 363.5 124 Z "></path><path fill="rgb(127,127,127)" stroke="rgb(127,127,127)" stroke-width="1" opacity="1" d="M 367.5 137 Q 380.3 169.2 404.5 190 L 417 200.5 L 416.5 202 L 413.5 198 L 393 179.5 L 375 155.5 L 368 141.5 L 367.5 137 Z "></path><path fill="rgb(127,127,127)" stroke="rgb(127,127,127)" stroke-width="1" opacity="1" d="M 56.5 139 L 57 140.5 L 55.5 143 L 55 141.5 L 56.5 139 Z "></path><path fill="rgb(127,127,127)" stroke="rgb(127,127,127)" stroke-width="1" opacity="1" d="M 53.5 146 L 54 147.5 L 50.5 153 L 51 151.5 L 53.5 146 Z "></path><path fill="rgb(127,127,127)" stroke="rgb(127,127,127)" stroke-width="1" opacity="1" d="M 49.5 154 L 49 155.5 L 45.5 161 L 47 158.5 L 49.5 154 Z "></path><path fill="rgb(127,127,127)" stroke="rgb(127,127,127)" stroke-width="1" opacity="1" d="M 44.5 162 L 43.5 164 L 44.5 162 Z "></path><path fill="rgb(127,127,127)" stroke="rgb(127,127,127)" stroke-width="1" opacity="1" d="M 42.5 165 L 41 167.5 L 19.5 192 L 12.5 198 L 19.5 190 L 28 182.5 L 42.5 165 Z "></path><path fill="rgb(127,127,127)" stroke="rgb(127,127,127)" stroke-width="1" opacity="1" d="M 10.5 198 L 8 201.5 L 7.5 206 L 7 201.5 L 10.5 198 Z "></path><path fill="rgb(127,127,127)" stroke="rgb(127,127,127)" stroke-width="1" opacity="1" d="M 417.5 203 L 418 210.5 L 417 210.5 L 417.5 203 Z "></path><path fill="rgb(127,127,127)" stroke="rgb(127,127,127)" stroke-width="1" opacity="1" d="M 6.5 208 L 7 218.5 L 6 218.5 L 6.5 208 Z "></path><path fill="rgb(127,127,127)" stroke="rgb(127,127,127)" stroke-width="1" opacity="1" d="M 418.5 213 L 419 250.5 L 418 250.5 L 418.5 213 Z "></path><path fill="rgb(127,127,127)" stroke="rgb(127,127,127)" stroke-width="1" opacity="1" d="M 5.5 224 L 6 241.5 L 5 241.5 L 5.5 224 Z "></path><path fill="rgb(127,127,127)" stroke="rgb(127,127,127)" stroke-width="1" opacity="1" d="M 97.5 227 L 110 227.5 L 97.5 228 L 97.5 227 Z "></path><path fill="rgb(127,127,127)" stroke="rgb(127,127,127)" stroke-width="1" opacity="1" d="M 312.5 227 L 317 227.5 L 312.5 228 L 312.5 227 Z "></path><path fill="rgb(127,127,127)" stroke="rgb(127,127,127)" stroke-width="1" opacity="1" d="M 325.5 227 L 330 227.5 L 325.5 228 L 325.5 227 Z "></path><path fill="rgb(127,127,127)" stroke="rgb(127,127,127)" stroke-width="1" opacity="1" d="M 92.5 228 L 96 228.5 Q 81.7 231.2 75 241.5 L 68.5 253 L 68 251.5 Q 73.2 240.2 82.5 233 L 92.5 228 Z "></path><path fill="rgb(127,127,127)" stroke="rgb(127,127,127)" stroke-width="1" opacity="1" d="M 112.5 228 Q 124.6 230.4 131 238.5 L 134 243.5 L 132 242.5 L 127.5 236 Q 122.3 230.2 112.5 229 L 112.5 228 Z "></path><path fill="rgb(127,127,127)" stroke="rgb(127,127,127)" stroke-width="1" opacity="1" d="M 308.5 228 L 311 228.5 L 306.5 230 L 306.5 229 L 308.5 228 Z "></path><path fill="rgb(127,127,127)" stroke="rgb(127,127,127)" stroke-width="1" opacity="1" d="M 334.5 229 L 341 232.5 L 339.5 232 L 334.5 230 L 334.5 229 Z "></path><path fill="rgb(127,127,127)" stroke="rgb(127,127,127)" stroke-width="1" opacity="1" d="M 302.5 231 L 301.5 233 L 295 237.5 Q 288.1 245.6 286.5 259 L 286 255.5 Q 288.4 241.4 297.5 234 L 302.5 231 Z "></path><path fill="rgb(127,127,127)" stroke="rgb(127,127,127)" stroke-width="1" opacity="1" d="M 342.5 233 Q 354.5 242 359 258.5 L 358 258.5 Q 353 242 342.5 233 Z "></path><path fill="rgb(127,127,127)" stroke="rgb(127,127,127)" stroke-width="1" opacity="1" d="M 134.5 245 L 137 252.5 L 136 252.5 L 134.5 245 Z "></path><path fill="rgb(127,127,127)" stroke="rgb(127,127,127)" stroke-width="1" opacity="1" d="M 6.5 247 L 7 256.5 L 6 256.5 L 6.5 247 Z "></path><path fill="rgb(127,127,127)" stroke="rgb(127,127,127)" stroke-width="1" opacity="1" d="M 417.5 253 L 418 261.5 L 417 261.5 L 417.5 253 Z "></path><path fill="rgb(127,127,127)" stroke="rgb(127,127,127)" stroke-width="1" opacity="1" d="M 67.5 254 L 68 255.5 L 66.5 258 L 66 256.5 L 67.5 254 Z "></path><path fill="rgb(127,127,127)" stroke="rgb(127,127,127)" stroke-width="1" opacity="1" d="M 137.5 254 L 138 256.5 L 137 256.5 L 137.5 254 Z "></path><path fill="rgb(127,127,127)" stroke="rgb(127,127,127)" stroke-width="1" opacity="1" d="M 138.5 258 L 139 261.5 L 138 261.5 L 138.5 258 Z "></path><path fill="rgb(127,127,127)" stroke="rgb(127,127,127)" stroke-width="1" opacity="1" d="M 7.5 259 L 8 265.5 L 7 265.5 L 7.5 259 Z "></path><path fill="rgb(127,127,127)" stroke="rgb(127,127,127)" stroke-width="1" opacity="1" d="M 285.5 260 L 286 263.5 L 285 263.5 L 285.5 260 Z "></path><path fill="rgb(127,127,127)" stroke="rgb(127,127,127)" stroke-width="1" opacity="1" d="M 359.5 260 L 362 267.5 L 362 271.5 L 361 271.5 L 359.5 260 Z "></path><path fill="rgb(127,127,127)" stroke="rgb(127,127,127)" stroke-width="1" opacity="1" d="M 64.5 262 L 65 264.5 L 64 264.5 L 64.5 262 Z "></path><path fill="rgb(127,127,127)" stroke="rgb(127,127,127)" stroke-width="1" opacity="1" d="M 139.5 263 L 140 266.5 L 139 266.5 L 139.5 263 Z "></path><path fill="rgb(127,127,127)" stroke="rgb(127,127,127)" stroke-width="1" opacity="1" d="M 416.5 263 L 417 268.5 L 416 268.5 L 416.5 263 Z "></path><path fill="rgb(127,127,127)" stroke="rgb(127,127,127)" stroke-width="1" opacity="1" d="M 284.5 265 L 285 268.5 L 282.5 276 L 282 273.5 L 284.5 265 Z "></path><path fill="rgb(127,127,127)" stroke="rgb(127,127,127)" stroke-width="1" opacity="1" d="M 63.5 266 L 64 268.5 L 63 268.5 L 63.5 266 Z "></path><path fill="rgb(127,127,127)" stroke="rgb(127,127,127)" stroke-width="1" opacity="1" d="M 8.5 267 L 9 271.5 L 8 271.5 L 8.5 267 Z "></path><path fill="rgb(127,127,127)" stroke="rgb(127,127,127)" stroke-width="1" opacity="1" d="M 140.5 268 L 141 270.5 L 140 270.5 L 140.5 268 Z "></path><path fill="rgb(127,127,127)" stroke="rgb(127,127,127)" stroke-width="1" opacity="1" d="M 62.5 270 L 63 274.5 L 62 274.5 L 62.5 270 Z "></path><path fill="rgb(127,127,127)" stroke="rgb(127,127,127)" stroke-width="1" opacity="1" d="M 415.5 270 L 416 274.5 L 414.5 280 L 414 275.5 L 415.5 270 Z "></path><path fill="rgb(127,127,127)" stroke="rgb(127,127,127)" stroke-width="1" opacity="1" d="M 141.5 272 L 142 274.5 L 141 274.5 L 141.5 272 Z "></path><path fill="rgb(127,127,127)" stroke="rgb(127,127,127)" stroke-width="1" opacity="1" d="M 362.5 273 L 363 279.5 L 362 279.5 L 362.5 273 Z "></path><path fill="rgb(127,127,127)" stroke="rgb(127,127,127)" stroke-width="1" opacity="1" d="M 9.5 274 L 11 281.5 L 10 281.5 L 9.5 274 Z "></path><path fill="rgb(127,127,127)" stroke="rgb(127,127,127)" stroke-width="1" opacity="1" d="M 142.5 276 L 144 279.5 L 143 279.5 L 142.5 276 Z "></path><path fill="rgb(127,127,127)" stroke="rgb(127,127,127)" stroke-width="1" opacity="1" d="M 61.5 277 L 62 296.5 L 61 296.5 L 61.5 277 Z "></path><path fill="rgb(127,127,127)" stroke="rgb(127,127,127)" stroke-width="1" opacity="1" d="M 281.5 277 L 282 278.5 L 280.5 281 L 280 279.5 L 281.5 277 Z "></path><path fill="rgb(127,127,127)" stroke="rgb(127,127,127)" stroke-width="1" opacity="1" d="M 144.5 281 L 153.5 294 L 159.5 299 L 164 300 L 164.5 297 L 165 299.5 L 161.5 301 L 150 291.5 L 145 284.5 L 144.5 281 Z "></path><path fill="rgb(127,127,127)" stroke="rgb(127,127,127)" stroke-width="1" opacity="1" d="M 413.5 281 L 414 283.5 L 413 283.5 L 413.5 281 Z "></path><path fill="rgb(127,127,127)" stroke="rgb(127,127,127)" stroke-width="1" opacity="1" d="M 11.5 283 L 13 289.5 L 12 289.5 L 11.5 283 Z "></path><path fill="rgb(127,127,127)" stroke="rgb(127,127,127)" stroke-width="1" opacity="1" d="M 278.5 284 L 278 285.5 L 269.5 296 L 261.5 301 L 260 298.5 L 261 298.5 Q 260.3 300.8 262.5 300 L 274 290.5 L 278.5 284 Z "></path><path fill="rgb(127,127,127)" stroke="rgb(127,127,127)" stroke-width="1" opacity="1" d="M 363.5 284 L 364 288.5 L 363 288.5 L 363.5 284 Z "></path><path fill="rgb(127,127,127)" stroke="rgb(127,127,127)" stroke-width="1" opacity="1" d="M 412.5 285 L 413 287.5 L 412 287.5 L 412.5 285 Z "></path><path fill="rgb(127,127,127)" stroke="rgb(127,127,127)" stroke-width="1" opacity="1" d="M 171.5 286 L 176 286.5 Q 168.7 286.2 167 291.5 L 165.5 296 L 165 293.5 L 169.5 287 L 171.5 286 Z "></path><path fill="rgb(127,127,127)" stroke="rgb(127,127,127)" stroke-width="1" opacity="1" d="M 247.5 286 Q 256.5 284.5 258 290.5 L 260 296.5 L 259 296.5 Q 258.1 289.9 253.5 287 L 247.5 287 L 247.5 286 Z "></path><path fill="rgb(127,127,127)" stroke="rgb(127,127,127)" stroke-width="1" opacity="1" d="M 177.5 287 L 188 290.5 L 186.5 291 L 177.5 288 L 177.5 287 Z "></path><path fill="rgb(127,127,127)" stroke="rgb(127,127,127)" stroke-width="1" opacity="1" d="M 243.5 287 L 246 287.5 L 241.5 289 L 241.5 288 L 243.5 287 Z "></path><path fill="rgb(127,127,127)" stroke="rgb(127,127,127)" stroke-width="1" opacity="1" d="M 411.5 289 L 412 291.5 L 409.5 298 L 409 295.5 L 411.5 289 Z "></path><path fill="rgb(127,127,127)" stroke="rgb(127,127,127)" stroke-width="1" opacity="1" d="M 13.5 291 L 15 296.5 L 14 296.5 L 13.5 291 Z "></path><path fill="rgb(127,127,127)" stroke="rgb(127,127,127)" stroke-width="1" opacity="1" d="M 192.5 292 L 195 292.5 L 192.5 293 L 192.5 292 Z "></path><path fill="rgb(127,127,127)" stroke="rgb(127,127,127)" stroke-width="1" opacity="1" d="M 227.5 292 L 231 292.5 L 227.5 293 L 227.5 292 Z "></path><path fill="rgb(127,127,127)" stroke="rgb(127,127,127)" stroke-width="1" opacity="1" d="M 196.5 293 L 201 293.5 L 196.5 294 L 196.5 293 Z "></path><path fill="rgb(127,127,127)" stroke="rgb(127,127,127)" stroke-width="1" opacity="1" d="M 219.5 293 L 226 293.5 L 219.5 294 L 219.5 293 Z "></path><path fill="rgb(127,127,127)" stroke="rgb(127,127,127)" stroke-width="1" opacity="1" d="M 362.5 293 L 363 300.5 L 362 300.5 L 362.5 293 Z "></path><path fill="rgb(127,127,127)" stroke="rgb(127,127,127)" stroke-width="1" opacity="1" d="M 202.5 294 L 217 294.5 L 202.5 295 L 202.5 294 Z "></path><path fill="rgb(127,127,127)" stroke="rgb(127,127,127)" stroke-width="1" opacity="1" d="M 15.5 298 L 18 304.5 L 17 304.5 L 15.5 298 Z "></path><path fill="rgb(127,127,127)" stroke="rgb(127,127,127)" stroke-width="1" opacity="1" d="M 62.5 299 L 63 303.5 L 62 303.5 L 62.5 299 Z "></path><path fill="rgb(127,127,127)" stroke="rgb(127,127,127)" stroke-width="1" opacity="1" d="M 408.5 299 L 409 300.5 L 405.5 308 L 405 306.5 L 408.5 299 Z "></path><path fill="rgb(127,127,127)" stroke="rgb(127,127,127)" stroke-width="1" opacity="1" d="M 361.5 302 L 362 306.5 L 361 306.5 L 361.5 302 Z "></path><path fill="rgb(127,127,127)" stroke="rgb(127,127,127)" stroke-width="1" opacity="1" d="M 18.5 306 L 23 315.5 L 22 315.5 L 18 307.5 L 18.5 306 Z "></path><path fill="rgb(127,127,127)" stroke="rgb(127,127,127)" stroke-width="1" opacity="1" d="M 63.5 306 L 64 309.5 L 63 309.5 L 63.5 306 Z "></path><path fill="rgb(127,127,127)" stroke="rgb(127,127,127)" stroke-width="1" opacity="1" d="M 360.5 308 L 361 311.5 L 358.5 319 L 358 316.5 L 360.5 308 Z "></path><path fill="rgb(127,127,127)" stroke="rgb(127,127,127)" stroke-width="1" opacity="1" d="M 404.5 309 L 405 310.5 Q 391.8 338.8 369.5 358 Q 356.7 369.7 340.5 378 L 341.5 376 Q 364.6 364.1 381 345.5 Q 395.4 329.9 404.5 309 Z "></path><path fill="rgb(127,127,127)" stroke="rgb(127,127,127)" stroke-width="1" opacity="1" d="M 64.5 311 L 65 313.5 L 64 313.5 L 64.5 311 Z "></path><path fill="rgb(127,127,127)" stroke="rgb(127,127,127)" stroke-width="1" opacity="1" d="M 65.5 315 L 67 320.5 L 66 320.5 L 65.5 315 Z "></path><path fill="rgb(127,127,127)" stroke="rgb(127,127,127)" stroke-width="1" opacity="1" d="M 23.5 317 L 27 322.5 L 25 321.5 L 23.5 317 Z "></path><path fill="rgb(127,127,127)" stroke="rgb(127,127,127)" stroke-width="1" opacity="1" d="M 27.5 324 L 30 327.5 L 28 326.5 L 27.5 324 Z "></path><path fill="rgb(127,127,127)" stroke="rgb(127,127,127)" stroke-width="1" opacity="1" d="M 355.5 326 L 356 327.5 L 353.5 333 L 353 331.5 L 355.5 326 Z "></path><path fill="rgb(127,127,127)" stroke="rgb(127,127,127)" stroke-width="1" opacity="1" d="M 69.5 328 L 71 331.5 L 70 331.5 L 69.5 328 Z "></path><path fill="rgb(127,127,127)" stroke="rgb(127,127,127)" stroke-width="1" opacity="1" d="M 30.5 329 L 31.5 331 L 30.5 329 Z "></path><path fill="rgb(127,127,127)" stroke="rgb(127,127,127)" stroke-width="1" opacity="1" d="M 32.5 332 L 38 338.5 L 34 335.5 L 32.5 332 Z "></path><path fill="rgb(127,127,127)" stroke="rgb(127,127,127)" stroke-width="1" opacity="1" d="M 71.5 333 L 74 338.5 L 73 338.5 L 71.5 333 Z "></path><path fill="rgb(127,127,127)" stroke="rgb(127,127,127)" stroke-width="1" opacity="1" d="M 351.5 336 L 352 337.5 L 342.5 355 L 343 353.5 L 351.5 336 Z "></path><path fill="rgb(127,127,127)" stroke="rgb(127,127,127)" stroke-width="1" opacity="1" d="M 38.5 340 L 54.5 357 L 69 368.5 L 66.5 367 Q 53.2 358.3 43 346.5 L 38.5 340 Z "></path><path fill="rgb(127,127,127)" stroke="rgb(127,127,127)" stroke-width="1" opacity="1" d="M 75.5 342 L 79 348.5 L 77 347.5 L 75.5 342 Z "></path><path fill="rgb(127,127,127)" stroke="rgb(127,127,127)" stroke-width="1" opacity="1" d="M 80.5 352 L 101 383.5 L 100 383.5 Q 87.5 369.1 80.5 352 Z "></path><path fill="rgb(127,127,127)" stroke="rgb(127,127,127)" stroke-width="1" opacity="1" d="M 341.5 356 L 341 357.5 L 324 385 L 338.5 378 L 337.5 380 L 324.5 386 L 323 383.5 L 341.5 356 Z "></path><path fill="rgb(127,127,127)" stroke="rgb(127,127,127)" stroke-width="1" opacity="1" d="M 70.5 369 L 71.5 371 L 70.5 369 Z "></path><path fill="rgb(127,127,127)" stroke="rgb(127,127,127)" stroke-width="1" opacity="1" d="M 73.5 371 L 74.5 373 L 73.5 371 Z "></path><path fill="rgb(127,127,127)" stroke="rgb(127,127,127)" stroke-width="1" opacity="1" d="M 76.5 373 L 80 375.5 L 78.5 375 L 76.5 373 Z "></path><path fill="rgb(127,127,127)" stroke="rgb(127,127,127)" stroke-width="1" opacity="1" d="M 81.5 376 L 97 384.5 L 95.5 384 L 82.5 378 L 81.5 376 Z "></path><path fill="rgb(127,127,127)" stroke="rgb(127,127,127)" stroke-width="1" opacity="1" d="M 98.5 385 L 101 385.5 L 98.5 386 L 98.5 385 Z "></path><path fill="rgb(254,127,0)" stroke="rgb(254,127,0)" stroke-width="1" opacity="1" d="M 204.5 70 L 221.5 70 L 230.5 73 Q 240.4 77.6 247 85.5 L 254 96.5 L 257 108.5 L 257 118.5 Q 253.6 139.1 239.5 149 L 223.5 157 L 209.5 158 L 194.5 154 L 180 144 L 171 128.5 L 169 119.5 L 169 107.5 Q 172.5 88.5 185.5 79 Q 193 72.5 204.5 70 Z "></path><path fill="rgb(254,127,0)" stroke="rgb(254,127,0)" stroke-width="1" opacity="1" d="M 144 180 L 155.5 184 L 166 192 L 172.5 200 L 175 201.5 Q 176.5 205.9 173.5 205 Q 169.8 209.8 160.5 209 Q 151.6 207.4 148 200.5 L 144 189.5 L 144 180 Z "></path><path fill="rgb(254,127,0)" stroke="rgb(254,127,0)" stroke-width="1" opacity="1" d="M 278.5 181 L 281 181.5 L 281 188.5 L 276 202.5 L 270.5 208 Q 266.5 211 258.5 210 L 250 205.5 Q 250.3 200.8 253.5 199 L 256 197.5 Q 255.3 195.3 257.5 196 L 261.5 191 Q 268.4 184.4 278.5 181 Z "></path><path fill="rgb(254,254,254)" stroke="rgb(254,254,254)" stroke-width="1" opacity="1" d="M 0 0 L 424 0 L 424 425 L 0 425 L 0 0 Z M 207 47 L 206 48 L 197 48 L 190 50 L 185 50 L 166 56 Q 145 65 129 78 L 106 88 L 95 90 L 67 90 L 66 93 L 66 101 L 62 123 L 55 144 Q 45 166 28 183 L 11 198 L 7 202 L 6 224 L 5 225 L 5 242 L 6 243 L 7 266 L 13 294 Q 23 325 43 347 Q 66 373 101 386 L 101 383 Q 85 364 74 340 L 67 322 L 62 299 L 62 276 Q 64 274 63 270 Q 66 253 75 242 Q 82 231 97 228 L 112 228 L 128 236 L 134 245 L 142 278 L 150 292 L 160 300 L 164 301 L 167 292 L 172 287 L 177 287 L 193 293 L 203 295 L 226 294 L 247 287 L 254 287 L 257 291 L 262 301 L 270 296 Q 278 289 282 279 L 288 252 L 295 238 L 306 230 L 318 227 L 331 228 L 342 233 Q 352 241 357 255 L 361 268 L 362 280 L 363 281 L 363 293 L 362 294 L 361 308 L 353 334 Q 341 361 323 384 L 325 386 Q 350 375 370 358 Q 392 339 405 311 L 415 280 L 417 263 L 418 262 L 418 252 L 419 251 L 419 214 L 418 213 L 417 201 L 405 190 Q 382 170 369 142 L 361 116 L 358 91 L 357 89 Q 351 88 350 90 L 326 89 L 309 84 L 267 59 L 250 52 L 224 47 L 207 47 Z "></path></svg>